<svg width="694" height="746" viewBox="0 0 694 746" fill="none" xmlns="http://www.w3.org/2000/svg">
<path d="M253.851 177.965C267.286 148.947 285.793 133.409 311.237 115.427C321.879 107.906 334.534 97.4556 341.912 86.5696C347.395 78.4806 350.302 68.1806 351.219 58.3126C352.04 49.4756 349.349 37.2896 353.637 29.3586C354.828 27.1546 359.479 25.3426 361.978 25.0866C372.411 24.0176 387.953 33.8126 396.172 39.4796C430.068 62.8526 451.108 97.6226 461.929 136.789C464.255 145.206 465.256 151.527 467.283 160.735C470.878 177.064 471.883 205.192 484.421 217.08C485.582 218.18 487.542 218.725 489.134 218.413C501.451 215.248 498.619 196.656 504.827 188.044C508.566 182.858 517.436 183.936 521.136 187.846C531.75 199.064 540.877 214.758 548.572 228.264C574.96 274.579 595.013 326.121 600.674 379.405C601.604 388.271 602.097 397.178 602.152 406.093C602.209 411.178 601.796 416.277 602.337 421.344C605.706 404.611 617.135 392.322 633.794 404.302C653.446 389.309 680.52 390.893 690.961 416.446C700.824 440.58 684.964 469.324 667.951 486.389C640.056 514.368 603.525 533.454 566.848 547.594C546.135 582.647 520.655 607.044 484.359 625.665C484.558 642.712 482.818 662.228 478.569 678.686C485.301 683.183 486.714 684.697 490.842 691.316C507.712 692.374 553.602 698.768 565.444 709.433C580.64 723.118 519.044 733.052 512.821 733.903C400.252 749.291 283.452 749.144 170.928 733.571C155.591 731.445 133.113 727.071 121.085 717.455C117.577 714.484 121.504 708.82 125.002 707.193C144.736 698.014 175.275 692.607 196.811 691.349C199.542 685.635 204.437 681.801 209.297 678.071C204.175 658.334 202.736 641.492 203.559 621.142C169.487 602.923 138.929 575.173 120.746 540.831C94.7149 529.741 70.9779 518.293 48.2939 500.955C25.7699 483.74 4.54991 462.082 0.433907 432.724C-1.11809 421.655 1.4719 409.633 8.5489 400.886C11.3459 397.37 14.8369 394.468 18.8044 392.36C22.7719 390.253 27.131 388.985 31.6099 388.636C42.4459 387.78 51.8989 391.581 60.0749 398.449C76.3289 388.904 87.3689 398.03 90.4499 414.604C91.1189 418.199 92.1649 422.231 92.9559 425.856C94.4599 355.539 114.816 294.215 159.028 239.063C175.527 218.48 193.963 199.708 202.472 174.133C206.494 162.045 207.715 139.004 226.389 146.32C239.453 151.627 248.17 165.602 253.851 177.965Z" fill="#0A1A31"/>
<path d="M196.812 691.349C189.001 713.966 209.744 719.775 227.61 721.29C244.967 722.761 271.218 723.296 285.814 712.146C295.129 705.03 293.02 683.433 293.876 672.46C294.152 676.879 294.145 680.127 294.033 684.567C328.464 684.009 359.229 683.256 393.849 684.83C393.761 681.49 393.516 677.607 393.888 674.335L393.971 675.135C396.241 699.052 389.61 715.401 422.337 720.369C439.265 722.939 476.55 725.278 488.973 710.846C490.477 709.127 491.599 707.109 492.266 704.925C492.932 702.74 493.128 700.439 492.839 698.174C492.555 695.821 491.67 693.531 490.843 691.316C507.713 692.374 553.603 698.768 565.445 709.433C580.641 723.118 519.045 733.052 512.822 733.903C400.253 749.291 283.453 749.144 170.929 733.571C155.592 731.445 133.114 727.071 121.086 717.455C117.578 714.484 121.505 708.82 125.003 707.193C144.737 698.014 175.276 692.607 196.812 691.349Z" fill="#FADAB6"/>
<path d="M294.981 651.699C329.689 657.899 358.594 657.8 393.2 654.107C393.531 660.777 393.992 667.677 393.887 674.335C393.515 677.607 393.76 681.49 393.848 684.83C359.228 683.256 328.463 684.009 294.032 684.567C294.144 680.127 294.151 676.879 293.875 672.46C293.8 665.391 294.427 658.734 294.981 651.699Z" fill="#FCFBF9"/>
<path d="M365.63 39.4424C368.935 40.8004 370.822 41.8614 373.88 43.5854C411.151 63.6334 433.686 96.8374 445.748 136.815C448.361 145.607 450.483 154.536 452.107 163.562C455.618 183.29 458.802 221.083 477.566 231.503C480.148 232.933 482.997 233.814 485.936 234.092C488.874 234.371 491.838 234.04 494.643 233.12C507.4 228.943 512.525 214.653 515.212 202.849C529.03 224.662 547.399 254.738 557.016 278.447C556.305 287.244 559.788 302.606 560.036 312.352C561.294 361.569 560.641 411.561 543.052 458.269C540.691 464.571 535.172 481.054 530.6 485.39C512.718 536.084 482.124 574.469 432.845 598.107C424.475 602.182 415.881 605.779 407.105 608.883C403.525 610.118 399.196 611.14 395.966 612.313C393.777 612.485 386.302 614.45 383.482 615.082C376.004 616.823 368.436 618.151 360.812 619.059C323.647 623.428 281.537 614.557 248.088 598.161C243.184 598.985 241.266 597.908 236.64 596.488C207.132 587.427 179.038 575.11 153.622 557.439C151.767 556.15 150.968 556.005 148.919 556.488C147.508 555.404 141.453 546.674 140.307 544.878C124.947 520.353 114.898 492.881 110.807 464.234C110.121 460.586 109.925 458.702 109.671 455.051C106.785 443.166 108.211 410.721 109.197 398.487C113.264 348.028 133.734 298.133 163.658 257.495C188.084 224.325 214.273 203.786 221.671 159.666C226.166 162.825 228.581 165.182 232.01 169.356C237.013 176.457 239.804 181.911 242.257 190.394C243.793 195.86 244.833 201.452 245.363 207.104C245.503 208.771 245.48 214.807 245.951 216.181C248.557 223.778 255.533 221.776 258.108 214.831C259.953 209.854 261.213 204.072 262.663 198.637C263.74 194.711 264.996 190.836 266.429 187.025C290.662 122.344 374.717 125.343 365.63 39.4424Z" fill="#FEB951"/>
<path d="M365.63 39.4424C368.935 40.8004 370.822 41.8614 373.88 43.5854C411.151 63.6334 433.686 96.8374 445.748 136.815C448.361 145.607 450.483 154.536 452.107 163.562C455.618 183.29 458.802 221.083 477.566 231.503C480.148 232.933 482.997 233.814 485.936 234.092C488.874 234.371 491.838 234.04 494.643 233.12C507.4 228.943 512.525 214.653 515.212 202.849C529.03 224.662 547.399 254.738 557.016 278.447C556.305 287.244 559.788 302.606 560.036 312.352C561.294 361.569 560.641 411.561 543.052 458.269C540.691 464.571 535.172 481.054 530.6 485.39L530.675 484.831C531.597 478.352 533.589 471.337 534.956 464.928C548.842 399.859 526.256 329.965 484.565 279.367C482.365 276.696 479.914 274.176 477.416 271.712C475.349 283.22 472.305 294.231 462.49 301.631C453.926 308.089 445.419 304.851 439.895 296.388C432.759 285.453 434.959 271.28 432.562 258.962C425.96 222.34 403.324 167.003 375.878 142.282C361.477 180.44 343.129 191.758 311.489 214.331C284.33 233.707 267.845 264.478 258.388 295.374C257.226 299.17 253.051 301.454 249.114 299.436C238.105 292.453 237.962 273.392 238.159 262.947C215.437 278.828 196.085 299.051 181.221 322.451C166.357 345.85 156.274 371.962 151.556 399.279C147.162 424.36 147.834 450.066 153.535 474.883C159.235 499.699 169.847 523.122 184.746 543.771C193.439 555.984 199.577 560.996 208.296 571.528C218.055 579.098 236.505 593.339 248.088 598.161C243.184 598.985 241.266 597.908 236.64 596.488C207.132 587.427 179.038 575.11 153.622 557.439C151.767 556.15 150.968 556.005 148.919 556.488C147.508 555.404 141.453 546.674 140.307 544.878C124.947 520.353 114.898 492.881 110.807 464.234C110.121 460.586 109.925 458.702 109.671 455.051C106.785 443.166 108.211 410.721 109.197 398.487C113.264 348.028 133.734 298.133 163.658 257.495C188.084 224.325 214.273 203.786 221.671 159.666C226.166 162.825 228.581 165.182 232.01 169.356C237.013 176.457 239.804 181.911 242.257 190.394C243.793 195.86 244.833 201.452 245.363 207.104C245.503 208.771 245.48 214.807 245.951 216.181C248.557 223.778 255.533 221.776 258.108 214.831C259.953 209.854 261.213 204.072 262.663 198.637C263.74 194.711 264.996 190.836 266.429 187.025C290.662 122.344 374.717 125.343 365.63 39.4424Z" fill="url(#paint0_linear_271_174)"/>
<path d="M221.671 159.667C226.166 162.826 228.581 165.183 232.01 169.357C231.948 171.527 230.983 180.36 231.019 180.775C221.837 220.907 197.151 240.25 173.651 270.995C162.74 285.511 153.116 300.952 144.891 317.142C128.177 349.835 119.521 383.444 113.849 419.593C112.882 425.752 110.747 451.9 109.671 455.052C106.785 443.167 108.211 410.722 109.197 398.488C113.264 348.029 133.734 298.134 163.658 257.496C188.084 224.326 214.273 203.787 221.671 159.667Z" fill="url(#paint1_linear_271_174)"/>
<path d="M365.63 39.4424C368.935 40.8004 370.822 41.8614 373.88 43.5854C381.069 60.6124 380.127 76.6364 373.438 93.6804C360.799 125.885 328.572 139.497 303.687 160.421C294.241 168.364 287.069 176.983 280.091 187.211C277.312 191.223 274.75 195.381 272.415 199.666C268.372 207.173 261.178 225.118 253.939 229.869C252.962 230.511 249.161 230.591 248.004 230.021C244.442 228.264 242.57 221.425 241.532 218.047C239.159 210.322 235.286 186.285 231.019 180.774C230.983 180.359 231.948 171.526 232.01 169.356C237.013 176.457 239.804 181.911 242.257 190.394C243.793 195.86 244.832 201.452 245.363 207.104C245.503 208.771 245.48 214.807 245.951 216.181C248.557 223.778 255.533 221.776 258.108 214.831C259.953 209.854 261.213 204.072 262.663 198.637C263.739 194.711 264.996 190.836 266.429 187.025C290.662 122.344 374.717 125.343 365.63 39.4424Z" fill="#FADAB6"/>
<path d="M110.807 464.234L111.13 464.643C115.901 473.737 117.053 482.528 122.214 492.114C138.492 522.347 160.302 544.195 189.814 561.405C194.676 564.24 203.016 570.111 208.296 571.528C218.055 579.098 236.505 593.339 248.088 598.161C243.184 598.985 241.266 597.908 236.64 596.488C207.132 587.427 179.038 575.11 153.622 557.439C151.767 556.15 150.968 556.005 148.919 556.488C147.508 555.404 141.453 546.674 140.307 544.878C124.947 520.353 114.898 492.881 110.807 464.234Z" fill="#FE7717"/>
<path d="M238.086 371.554C243.331 367.991 249.553 360.074 255.736 355.769C257.311 353.742 273.575 347.098 273.68 346.065C277.568 307.578 299.146 272.54 329.357 248.783C336.935 242.823 343.918 238.291 352.22 233.513C357.299 230.59 359.644 229.559 365.326 228.054C367.335 228.569 366.495 228.032 367.761 229.959C367.706 234.538 365.279 239.634 364.312 244.176C361.59 256.962 361.742 270.254 364.039 283.089C367.345 301.562 376.845 317.754 381.646 335.831C388.62 326.021 391.756 320.873 396.827 309.896C409.728 321.773 414.677 341.17 406.386 357.103C410.346 358.928 424.405 368.095 426.912 371.606C435.62 383.805 430.509 376.017 441.894 379.699L440.512 380.297C453.644 384.235 463.117 388.819 469.79 401.315C473.33 407.944 475.544 415.933 473.766 423.416C472.376 429.269 466.596 428.669 462.471 426.252C463.143 432.96 463.949 438.607 464.195 445.397C476.443 445.693 488.695 445.633 498.219 454.653C503.809 459.948 501.128 467.403 495.67 471.482C486.557 478.292 474.777 478.373 463.959 477.87C460.293 502.187 449.365 524.83 432.607 542.83C383.111 595.467 291.432 596.801 239.464 547.265C217.167 525.937 204.164 496.687 203.27 465.845C192.711 465.569 179.179 464.799 171.166 456.915C166.202 452.03 166.597 444.17 171.92 439.687C180.476 432.48 192.824 433.197 203.247 433.638L202.921 433.265C202.338 431.154 204.341 420.863 204.706 417.149C186.327 418.516 197.844 391.976 205.216 384.878C215.601 374.88 224.108 372.149 238.086 371.554Z" fill="url(#paint2_linear_271_174)"/>
<path d="M238.088 371.554C244.932 372.369 249.035 373.014 255.495 375.761C269.788 381.839 279.697 395.234 279.292 411.051C279.193 414.942 276.056 418.308 271.996 417.894C266.996 417.334 265.609 408.67 263.623 404.914C259.741 397.573 252.95 391.969 244.974 389.826C237.515 387.87 229.587 388.909 222.884 392.722C210.718 399.758 210.713 413.045 204.708 417.149C186.329 418.516 197.846 391.976 205.218 384.878C215.603 374.88 224.11 372.149 238.088 371.554Z" fill="#0A1A31"/>
<path d="M462.473 426.252C460.043 421.447 458.892 416.247 455.875 411.393C442.317 389.585 414.581 392.043 403.424 414.548C401.78 417.863 399.983 423.878 395.32 423.217C390.597 422.488 388.87 417.924 389.616 413.672C394.119 388.017 416.183 377.07 440.514 380.297C453.646 384.235 463.119 388.819 469.792 401.315C473.332 407.944 475.546 415.933 473.768 423.416C472.378 429.269 466.598 428.669 462.473 426.252Z" fill="#0A1A31"/>
<path d="M464.197 445.396C476.444 445.692 488.697 445.632 498.221 454.652C503.811 459.947 501.13 467.402 495.672 471.481C486.559 478.291 474.779 478.372 463.961 477.869C432.67 473.831 431.965 448.853 464.197 445.396Z" fill="#FE7717"/>
<path d="M203.27 465.845C192.711 465.569 179.179 464.799 171.166 456.915C166.202 452.03 166.597 444.17 171.92 439.687C180.476 432.48 192.824 433.197 203.247 433.638C211.151 434.963 219.592 436.833 224.517 443.754C229.155 450.272 226.175 457.789 219.644 461.467C214.517 464.354 208.999 465.227 203.27 465.845Z" fill="#FE7717"/>
<path d="M273.216 444.407C282.853 443.763 295.106 445.336 304.588 446.959C333.363 451.884 360.97 447.71 389.62 446.728C403.209 446.262 413.427 458.68 411.515 472.885C408.684 493.918 397.787 510.34 381.317 523.718C374.514 528.81 365.559 533.159 357.466 535.624C336.327 541.891 313.573 539.618 294.091 529.294C271.196 516.893 245.467 483.456 258.25 454.198C260.677 448.644 267.465 445.797 273.216 444.407Z" fill="#0A1A31"/>
<path d="M331.424 491.682C350.764 489.462 372.041 493.981 387.796 505.793C374.516 520.059 361.485 526.252 342.577 529.34C321.145 531.373 302.955 526.809 285.969 513.518C298.316 500.512 313.858 493.907 331.424 491.682Z" fill="#FE7717"/>
<path d="M318.041 497.691C320.848 497.398 322.159 497.255 324.537 498.559C327.642 503.393 321.388 506.225 317.8 507.772C314.619 508.366 312.255 508.77 310.492 505.718C310.612 500.868 314.157 499.339 318.041 497.691Z" fill="#FCFBF9"/>
<path d="M273.889 452.394C284.214 451.992 294.528 454.165 304.795 455.561C314.623 456.829 324.506 457.618 334.41 457.928C348.865 458.296 362.358 457.332 376.7 455.799C381.825 455.251 391.846 453.79 395.363 457.842C396.712 462.816 394.186 469.376 390.129 472.491C385.05 473.632 377.033 474.696 371.834 475.303C344.437 478.591 316.697 477.668 289.579 472.566C278.45 470.567 269.674 470.202 270.916 455.632C271.048 454.081 272.744 453.24 273.889 452.394Z" fill="#FCFBF9"/>
<path d="M471.606 316.806C487.599 317.383 491.332 335.241 488.895 347.904C487.94 352.866 486.711 355.163 484.262 359.414C482.53 356.674 481.703 351.425 480.233 348.311C475.701 338.706 457.864 326.817 471.606 316.806Z" fill="#FADAB6"/>
<path d="M557.017 278.448C574.829 318.156 587.085 363.772 587.257 407.565C587.313 421.621 585.638 436.63 583.922 450.583C577.505 456.652 567.008 466.011 564.893 474.829L565.285 476.159C585.292 465.871 595.728 458.037 609.692 440.925L610.162 440.124C616.108 429.876 613.01 417.114 621.653 412.112C622.308 411.733 623.268 412.126 624.171 412.313C630.849 417.474 630.505 429.121 632.469 430.516C636.264 427.107 636.069 425.39 636.723 420.146C660.323 392.717 692.372 418.799 675.662 450.236C671.154 461.525 664.185 469.703 655.854 478.345C627.162 504.906 593.867 522.228 557.774 536.404C553.24 538.185 541.408 542.431 540.875 547.436C541.523 548.702 541.357 548.585 542.266 549.63C539.464 553.966 528.503 560.164 523.649 563.188C487.183 585.902 447.653 602.153 405.696 611.46C402.639 612.138 399.033 612.913 395.967 612.314C399.197 611.141 403.526 610.119 407.106 608.884C415.882 605.78 424.476 602.182 432.846 598.108C482.125 574.47 512.719 536.085 530.601 485.391C535.173 481.055 540.692 464.572 543.053 458.27C560.642 411.562 561.295 361.57 560.037 312.353C559.789 302.607 556.306 287.245 557.017 278.448Z" fill="#FE7717"/>
<path d="M636.722 420.146C660.322 392.717 692.371 418.799 675.661 450.236C671.153 461.525 664.184 469.703 655.853 478.345C652.802 477.69 647.357 475.76 644.194 474.74L644.241 474.501C630.451 468.813 615.295 454.937 609.691 440.925L610.161 440.124C616.107 429.876 613.009 417.114 621.652 412.112C622.307 411.733 623.267 412.126 624.17 412.313C630.848 417.474 630.504 429.121 632.468 430.516C636.263 427.107 636.068 425.39 636.722 420.146Z" fill="#FCFBF9"/>
<path d="M644.242 474.5C651.795 469.979 657.149 465.892 663.822 460.12C667.184 457.212 672.13 452.605 675.662 450.235C671.154 461.524 664.185 469.702 655.854 478.344C652.803 477.689 647.358 475.759 644.195 474.739L644.242 474.5Z" fill="#FADAB6"/>
<path d="M609.691 440.925C615.295 454.937 630.451 468.813 644.241 474.501L644.194 474.74C640.075 476.187 632.767 481.876 628.536 484.36C608.297 496.244 582.739 508.003 558.856 505.727C552.793 505.15 562.206 479.841 564.476 476.59L565.284 476.159C585.291 465.871 595.727 458.037 609.691 440.925Z" fill="#FE9311"/>
<path d="M542.266 549.63L545.497 550.309C547.464 553.709 539.991 561.051 537.744 563.947C522.405 583.718 502.364 599.54 480.374 611.318C414.125 647.215 332.198 649.826 260.803 628.968C224.208 618.277 188.478 599.034 161.871 571.52C158.702 568.243 151.086 559.942 148.92 556.489C150.969 556.006 151.768 556.151 153.623 557.44C179.039 575.111 207.133 587.428 236.641 596.489C241.267 597.909 243.185 598.986 248.089 598.162C281.538 614.558 323.648 623.429 360.813 619.06C368.437 618.152 376.005 616.824 383.483 615.083C386.303 614.451 393.778 612.486 395.967 612.314C399.033 612.913 402.639 612.138 405.696 611.46C447.653 602.153 487.183 585.902 523.649 563.188C528.503 560.164 539.464 553.966 542.266 549.63Z" fill="#FE9311"/>
<path d="M16.9307 441.701C4.78574 409.691 31.9038 388.079 56.0918 413.987C56.3517 417.01 56.3188 421.833 58.9108 423.761C64.2418 421.874 62.3207 407.293 71.7627 407.741C78.4667 411.616 77.4087 424.209 82.3997 433.248L82.8298 434.011C86.4028 438.855 90.1477 442.384 94.3837 446.607C95.0207 460.554 98.0167 477.968 101.543 491.583C104.835 503.064 107.33 510.506 111.872 521.549C84.6647 509.141 56.0278 491.99 35.0878 470.526C27.5808 462.728 20.6767 451.873 16.9307 441.701Z" fill="#FCFBF9"/>
<path d="M82.8299 434.011C86.4029 438.855 90.1479 442.384 94.3839 446.607C95.0209 460.554 98.0169 477.968 101.543 491.583C104.835 503.064 107.33 510.506 111.872 521.549C84.6649 509.141 56.0279 491.99 35.0879 470.526L38.1999 469.691L47.8739 466.77L47.8459 466.552C61.6859 461.98 77.4349 447.617 82.8299 434.011Z" fill="#FE9311"/>
<path d="M47.8739 466.77C52.1189 468.605 58.4359 473.015 62.5759 475.513C71.4999 480.9 90.3159 491.392 100.209 492.544C101.389 491.937 101.007 492.331 101.543 491.583C104.835 503.064 107.33 510.506 111.872 521.549C84.6649 509.141 56.0279 491.99 35.0879 470.526L38.1999 469.69L47.8739 466.77Z" fill="#FE7717"/>
<path d="M16.9297 441.701C25.3937 447.917 31.3857 455.905 41.1967 462.272L47.8447 466.552L47.8727 466.77L38.1987 469.691L35.0867 470.526C27.5797 462.728 20.6757 451.873 16.9297 441.701Z" fill="#FADAB6"/>
<path d="M217.339 627.852C231.294 634.021 244.138 639.246 258.871 643.44C266.357 645.571 273.801 647.106 281.269 649.142C280.95 654.432 280.702 659.961 280.199 665.217C279.902 672.748 281.192 699.051 276.407 702.178C265.872 709.063 236.659 708.33 224.14 706.823C219.545 706.269 212.25 705.157 209.599 701.62C208.821 700.582 208.837 699.129 208.955 697.867C212.587 690.793 218.423 687.627 224.897 683.448C222.618 674.139 220.839 666.17 219.188 656.745C218.113 650.226 217.519 643.637 217.413 637.032L217.339 627.852Z" fill="#FCFBF9"/>
<path d="M217.338 627.852C231.293 634.021 244.137 639.246 258.87 643.44C266.356 645.571 273.8 647.106 281.268 649.142C280.949 654.432 280.701 659.961 280.198 665.217C280.019 664.436 280.177 664.93 279.5 663.825C276.881 663.539 269.512 664.518 266.158 664.729C247.734 664.985 236.564 664.156 219.187 656.745C218.112 650.226 217.519 643.637 217.412 637.032L217.338 627.852Z" fill="#FE7717"/>
<path d="M217.412 637.032C221.592 638.508 227.416 643.935 231.977 646.447C242.244 652.101 253.858 656.315 264.248 661.487C264.746 661.735 265.89 664.167 266.158 664.729C247.734 664.985 236.564 664.156 219.187 656.745C218.112 650.227 217.519 643.638 217.412 637.032Z" fill="#FE9311"/>
<path d="M266.159 664.728C269.513 664.517 276.882 663.538 279.501 663.824C280.178 664.929 280.02 664.435 280.199 665.216C279.902 672.747 281.192 699.05 276.407 702.177C265.872 709.062 236.659 708.329 224.14 706.822C219.545 706.268 212.25 705.156 209.599 701.619C208.821 700.581 208.837 699.128 208.955 697.866C210.99 699.659 225.467 699.438 229.381 699.603C238.052 699.967 257.636 698.664 264.19 692.526C268.4 688.584 266.539 670.474 266.159 664.728Z" fill="#FADAB6"/>
<path d="M407.012 651.826C432.725 646.211 445.943 642.651 470.363 632.345C470.332 635.355 470.179 638.281 470.034 641.284C469.568 646.51 469.183 652.305 468.309 657.431C466.751 666.748 465.097 674.903 462.354 683.992C471.002 688.923 474.168 690.463 479.581 698.963C479.027 711.997 420.388 709.733 411.656 702.409C407.139 698.62 407.963 669.661 407.84 663.879L407.012 651.826Z" fill="#FCFBF9"/>
<path d="M407.012 651.826C432.725 646.211 445.943 642.651 470.363 632.345C470.332 635.355 470.179 638.281 470.034 641.284C469.568 646.51 469.183 652.305 468.309 657.431C454.128 663.159 446.594 664.543 431.345 665.432L422.559 665.407C418.444 665.249 412.094 664.347 407.84 663.879L407.012 651.826Z" fill="#FE7717"/>
<path d="M422.559 665.406C427.506 658.988 450.12 651.808 457.717 646.006C460.598 643.806 465.598 640.073 468.59 638.153L469.502 638.452L470.034 641.283C469.568 646.509 469.183 652.304 468.309 657.43C454.128 663.158 446.594 664.542 431.345 665.431L422.559 665.406Z" fill="#FE9311"/>
<path d="M407.84 663.879C412.094 664.347 418.444 665.249 422.559 665.407L431.345 665.432C427.623 666.039 426.413 666.014 422.727 665.942C422.512 672.519 419.661 689.425 424.804 693.267C437.944 703.082 464.821 700.876 479.581 698.963C479.027 711.997 420.388 709.733 411.656 702.409C407.139 698.62 407.963 669.661 407.84 663.879Z" fill="#FADAB6"/>
<path d="M252.858 0C264.743 1.928 276.642 18.975 280.593 29.662C283.84 38.2587 284.81 47.549 283.408 56.631C278.491 87.796 255.554 86.8 244.627 110.891L242.382 118.689C221.914 102.777 213.369 72.87 230.552 51.344C237.993 42.022 247.27 34.924 251.579 23.487C254.865 14.765 252.942 9.065 252.86 0.550003L252.858 0Z" fill="#FE9311"/>
<path d="M261.519 44.9805C265.043 49.3655 265.652 61.5414 265.092 66.8864C263.672 80.4504 253.617 87.0414 245.588 96.5454C243.889 98.5564 242.181 102.998 240.444 104.338L239.593 103.729C218.649 74.2395 253.412 66.8365 261.519 44.9805Z" fill="#FEB951"/>
<path d="M513.863 70.1242C514.623 70.0722 515.728 70.1552 516.52 70.1862C518.71 72.8982 513.69 80.7352 513.532 85.9882C512.844 96.9652 521.045 105.792 524.953 115.3C534.612 138.796 518.161 154.427 498.925 162.749C496.727 163.627 493.721 164.442 491.4 165.145C492.048 160.179 492.871 154.75 491.745 149.899C487.651 132.257 476.66 122.589 483.477 102.772C488.517 88.1202 500.092 76.9922 513.863 70.1242Z" fill="#FE9311"/>
<path d="M501.61 105.438C503.06 107.123 503.964 110.945 505.349 113.01C516.188 129.171 520.696 137.672 504.369 152.182C503.678 152.775 499.783 155.087 498.779 155.709C502.037 133.674 486.701 130.06 501.61 105.438Z" fill="#FEB951"/>
<defs>
<linearGradient id="paint0_linear_271_174" x1="405.793" y1="52.0514" x2="300.337" y2="587.221" gradientUnits="userSpaceOnUse">
<stop stop-color="#FF7C13"/>
<stop offset="1" stop-color="#FF9A14"/>
</linearGradient>
<linearGradient id="paint1_linear_271_174" x1="65.7449" y1="402.841" x2="267.988" y2="208.621" gradientUnits="userSpaceOnUse">
<stop stop-color="#FEB574"/>
<stop offset="1" stop-color="#FFE9AE"/>
</linearGradient>
<linearGradient id="paint2_linear_271_174" x1="331.889" y1="582.139" x2="334.986" y2="228.507" gradientUnits="userSpaceOnUse">
<stop stop-color="#FFD898"/>
<stop offset="1" stop-color="#FEEEC9"/>
</linearGradient>
</defs>
</svg>
